<svg xmlns="http://www.w3.org/2000/svg" viewBox="0 0 1200 600"><defs><style>.cls-1{fill:#fff;}.cls-2{font-size:121.86px;font-family:Montserrat-SemiBold, Montserrat;font-weight:600;}.cls-3{letter-spacing:-0.01em;}.cls-4{letter-spacing:0em;}.cls-5{letter-spacing:-0.01em;}.cls-6{letter-spacing:-0.01em;}.cls-7{fill:#06b6d4;}</style></defs><g id="Layer_2" data-name="Layer 2"><g id="Layer_1-2" data-name="Layer 1"><rect class="cls-1" width="1200" height="600"/><text class="cls-2" transform="translate(330.48 335.64)"><tspan class="cls-3">P</tspan><tspan class="cls-4" x="86.65" y="0">a</tspan><tspan class="cls-5" x="160.62" y="0">t</tspan><tspan x="210.7" y="0">ta</tspan><tspan class="cls-6" x="336.34" y="0">r</tspan><tspan class="cls-4" x="386.55" y="0">ai Blog</tspan></text><path class="cls-7" d="M219.25,244.63c-22.91-28.76-55.17-27.88-56.69-27.82-1,0-33.62-1.17-56.72,27.82-23.46,29.47-10.93,62.75-10.93,62.75s4.91,12,11.46,20.74,16.37,29.46,19.1,46.38S138,390.86,138,390.86h49s9.82.55,12.55-16.36,12.55-37.65,19.1-46.38,11.45-20.74,11.45-20.74S242.7,274.1,219.25,244.63ZM207.79,327c-7.65,11.46-17.06,35.28-18.55,42-2.19,9.82-5.47,9.28-5.47,9.28V323.21s21.82-10.93,21.82-37.1-22.37-36-22.37-36v31.65c0,7.64-8.45,10.09-8.45,10.09H150.3s-8.46-2.45-8.46-10.09V250.09s-22.37,9.83-22.37,36,21.83,37.1,21.83,37.1v55.11s-3.28.54-5.47-9.28c-1.5-6.74-10.93-30.56-18.55-42s-26.73-40.37-4.91-73.11c0,0,13.64-24.55,50.2-25.64,36.56,1.09,50.12,25.64,50.12,25.64C234.52,286.65,215.42,315.57,207.79,327Z"/><path class="cls-7" d="M183.62,396.32H139.9a1.21,1.21,0,0,0-1,.6l-3.31,4a1.2,1.2,0,0,0,0,1.19l3.29,4a1.18,1.18,0,0,0,1,.6h43.71a1.21,1.21,0,0,0,1-.6l3.31-4a1.2,1.2,0,0,0,0-1.19l-3.31-4A1.2,1.2,0,0,0,183.62,396.32Z"/><path class="cls-7" d="M180.54,410.69H143a1.06,1.06,0,0,0-.89.52l-2.85,3.42a1,1,0,0,0,0,1l2.84,3.43a1,1,0,0,0,.88.51h37.56a1.06,1.06,0,0,0,.89-.51l2.84-3.43a1,1,0,0,0,0-1l-2.84-3.42A1.06,1.06,0,0,0,180.54,410.69Z"/><path class="cls-7" d="M161.76,424.7h19.37c0,6.58-8.75,12-19.37,12s-19.37-5.42-19.37-12v-.06Z"/><path class="cls-7" d="M167.49,198.36V167.6a2.36,2.36,0,0,0-1-1.93l-2.85-1.95a2.32,2.32,0,0,0-2.66,0l-2.84,1.95a2.36,2.36,0,0,0-1,1.93v30.76a2.36,2.36,0,0,0,1,1.93l2.84,2a2.32,2.32,0,0,0,2.66,0l2.85-2A2.36,2.36,0,0,0,167.49,198.36Z"/><path class="cls-7" d="M72.93,282.82H42.16a2.36,2.36,0,0,0-1.93,1l-1.95,2.85a2.33,2.33,0,0,0,0,2.65l1.95,2.85a2.36,2.36,0,0,0,1.93,1H72.93a2.35,2.35,0,0,0,1.91-1l2-2.85a2.33,2.33,0,0,0,0-2.65l-2-2.84A2.34,2.34,0,0,0,72.93,282.82Z"/><path class="cls-7" d="M280.81,282.82H250a2.33,2.33,0,0,0-1.92,1l-2,2.85a2.33,2.33,0,0,0,0,2.65l2,2.85a2.33,2.33,0,0,0,1.92,1h30.77a2.36,2.36,0,0,0,1.93-1l1.95-2.85a2.33,2.33,0,0,0,0-2.65l-1.95-2.85A2.36,2.36,0,0,0,280.81,282.82Z"/><path class="cls-7" d="M249.42,367.8l-21.76-21.75a2.35,2.35,0,0,0-2.08-.64l-3.4.62a2.36,2.36,0,0,0-1.88,1.88l-.62,3.4a2.33,2.33,0,0,0,.65,2.08l21.76,21.75a2.31,2.31,0,0,0,2.07.65l3.4-.62a2.37,2.37,0,0,0,1.88-1.88l.62-3.4A2.33,2.33,0,0,0,249.42,367.8Z"/><path class="cls-7" d="M242.09,199.27,220.33,221a2.35,2.35,0,0,0-.65,2.09l.62,3.4a2.34,2.34,0,0,0,1.88,1.87l3.4.63a2.36,2.36,0,0,0,2.08-.65l21.76-21.76a2.33,2.33,0,0,0,.64-2.07l-.62-3.4a2.34,2.34,0,0,0-1.88-1.88l-3.4-.62A2.3,2.3,0,0,0,242.09,199.27Z"/><path class="cls-7" d="M102.64,221,80.88,199.27a2.31,2.31,0,0,0-2.07-.65l-3.4.62a2.34,2.34,0,0,0-1.88,1.88l-.62,3.4a2.35,2.35,0,0,0,.64,2.08l21.76,21.75a2.33,2.33,0,0,0,2.08.65l3.39-.63a2.34,2.34,0,0,0,1.89-1.87l.62-3.4A2.33,2.33,0,0,0,102.64,221Z"/><path class="cls-7" d="M95.31,346.05,73.55,367.81a2.35,2.35,0,0,0-.64,2.08l.62,3.4a2.36,2.36,0,0,0,1.88,1.88l3.4.62a2.31,2.31,0,0,0,2.07-.65l21.76-21.75a2.33,2.33,0,0,0,.65-2.08l-.62-3.4a2.35,2.35,0,0,0-1.89-1.88l-3.39-.62A2.35,2.35,0,0,0,95.31,346.05Z"/></g></g></svg>