<svg xmlns="http://www.w3.org/2000/svg" viewBox="0 0 91.18 100.83"><defs><style>.cls-1{fill:#48c5df;}</style></defs><g id="Layer_2" data-name="Layer 2"><g id="Layer_1-2" data-name="Layer 1"><path class="cls-1" d="M66.89,30A27,27,0,0,0,46,19.73,27.06,27.06,0,0,0,25.07,30c-8.65,10.86-4,23.14-4,23.14a40.69,40.69,0,0,0,4.22,7.64,46.59,46.59,0,0,1,7.05,17.11c1,6.24,4.62,6,4.62,6H55s3.62.2,4.63-6a46.59,46.59,0,0,1,7-17.11,40.38,40.38,0,0,0,4.23-7.64S75.54,40.86,66.89,30ZM62.67,60.38a69,69,0,0,0-6.84,15.5c-.81,3.62-2,3.42-2,3.42V59a15.74,15.74,0,0,0,8-13.68A14.8,14.8,0,0,0,53.61,32V43.68c0,2.82-3.12,3.72-3.12,3.72h-9s-3.12-.9-3.12-3.72V32A14.79,14.79,0,0,0,30.1,45.29a15.72,15.72,0,0,0,8,13.68V79.3s-1.21.2-2-3.42a69.49,69.49,0,0,0-6.84-15.5c-2.81-4.22-9.86-14.89-1.81-27,0,0,5-9.06,18.51-9.46,13.48.4,18.49,9.46,18.49,9.46C72.53,45.49,65.48,56.16,62.67,60.38Z" transform="translate(0)"/><path class="cls-1" d="M53.75,85.94H37.63a.43.43,0,0,0-.38.22L36,87.63a.43.43,0,0,0,0,.44l1.21,1.47a.44.44,0,0,0,.38.22H53.74a.44.44,0,0,0,.39-.22l1.22-1.47a.43.43,0,0,0,0-.44l-1.22-1.47A.45.45,0,0,0,53.75,85.94Z" transform="translate(0)"/><path class="cls-1" d="M52.62,91.24H38.77a.37.37,0,0,0-.33.19l-1,1.26a.37.37,0,0,0,0,.38l1,1.26a.39.39,0,0,0,.33.19H52.61a.37.37,0,0,0,.33-.19L54,93.07a.42.42,0,0,0,0-.38l-1.05-1.26A.37.37,0,0,0,52.62,91.24Z" transform="translate(0)"/><path class="cls-1" d="M45.69,96.4h7.15c0,2.43-3.23,4.43-7.15,4.43s-7.14-2-7.14-4.43v0Z" transform="translate(0)"/><path class="cls-1" d="M47.8,12.93V1.58a.85.85,0,0,0-.37-.71l-1-.72a.88.88,0,0,0-1,0l-1,.72a.87.87,0,0,0-.37.71V12.93a.87.87,0,0,0,.37.71l1,.72a.84.84,0,0,0,1,0l1-.72A.85.85,0,0,0,47.8,12.93Z" transform="translate(0)"/><path class="cls-1" d="M12.93,44.08H1.58a.87.87,0,0,0-.71.37l-.72,1a.88.88,0,0,0,0,1l.72,1.05a.87.87,0,0,0,.71.37H12.93a.85.85,0,0,0,.7-.37l.72-1.05a.83.83,0,0,0,0-1l-.72-1A.83.83,0,0,0,12.93,44.08Z" transform="translate(0)"/><path class="cls-1" d="M89.6,44.08H78.25a.87.87,0,0,0-.71.37l-.72,1a.88.88,0,0,0,0,1l.72,1.05a.87.87,0,0,0,.71.37H89.6a.87.87,0,0,0,.71-.37L91,46.48a.88.88,0,0,0,0-1l-.72-1A.87.87,0,0,0,89.6,44.08Z" transform="translate(0)"/><path class="cls-1" d="M78,75.42l-8-8a.88.88,0,0,0-.77-.24L68,67.39a.87.87,0,0,0-.7.69l-.23,1.26a.86.86,0,0,0,.24.76l8,8a.86.86,0,0,0,.76.24l1.26-.23a.87.87,0,0,0,.69-.7l.23-1.25A.88.88,0,0,0,78,75.42Z" transform="translate(0)"/><path class="cls-1" d="M75.32,13.26l-8,8a.88.88,0,0,0-.24.77l.23,1.25A.86.86,0,0,0,68,24l1.25.23A.88.88,0,0,0,70,24l8-8a.88.88,0,0,0,.24-.77L78,14a.86.86,0,0,0-.69-.69L76.08,13A.85.85,0,0,0,75.32,13.26Z" transform="translate(0)"/><path class="cls-1" d="M23.89,21.29l-8-8A.86.86,0,0,0,15.1,13l-1.25.23a.87.87,0,0,0-.7.7l-.23,1.25a.88.88,0,0,0,.24.77l8,8a.86.86,0,0,0,.76.24L23.2,24a.87.87,0,0,0,.7-.69l.23-1.26A.86.86,0,0,0,23.89,21.29Z" transform="translate(0)"/><path class="cls-1" d="M21.19,67.4l-8,8a.88.88,0,0,0-.24.77l.23,1.25a.87.87,0,0,0,.7.7l1.25.23a.86.86,0,0,0,.76-.24l8-8a.86.86,0,0,0,.24-.76l-.23-1.26a.87.87,0,0,0-.7-.69L22,67.16A.86.86,0,0,0,21.19,67.4Z" transform="translate(0)"/></g></g></svg>